<svg width="190" height="54" viewBox="0 0 190 54" fill="none" xmlns="http://www.w3.org/2000/svg">
<path d="M0 0H190L179 8.43537L190 13.4966L179 19.8231L190 25.3061L179 31.2109L190 37.9592L179 43.4421L190 53.1428H0L7 43.4421L0 40.068L7 35.8503L0 31.2109L7 22.7755L0 19.8231L7 13.4966L0 0Z" fill="url(#paint0_linear_49_88)"/>
<path d="M40.904 17.8148C41.96 17.8148 42.824 17.9748 43.496 18.2948C44.184 18.5988 44.792 18.9588 45.32 19.3748C45.64 19.6148 45.88 19.6468 46.04 19.4708C46.216 19.2788 46.336 18.8388 46.4 18.1508H46.952C46.92 18.7428 46.896 19.4628 46.88 20.3108C46.864 21.1588 46.856 22.2788 46.856 23.6708H46.304C46.192 22.9828 46.088 22.4388 45.992 22.0388C45.896 21.6228 45.776 21.2708 45.632 20.9828C45.504 20.6948 45.328 20.4068 45.104 20.1188C44.608 19.4628 43.984 18.9908 43.232 18.7028C42.48 18.3988 41.688 18.2468 40.856 18.2468C40.072 18.2468 39.36 18.4468 38.72 18.8468C38.096 19.2308 37.552 19.7908 37.088 20.5268C36.64 21.2628 36.288 22.1508 36.032 23.1908C35.792 24.2308 35.672 25.3988 35.672 26.6948C35.672 28.0388 35.808 29.2308 36.08 30.2708C36.352 31.2948 36.728 32.1588 37.208 32.8628C37.704 33.5668 38.28 34.1028 38.936 34.4708C39.608 34.8228 40.328 34.9988 41.096 34.9988C41.816 34.9988 42.568 34.8548 43.352 34.5668C44.136 34.2788 44.752 33.8148 45.2 33.1748C45.552 32.7108 45.792 32.2068 45.92 31.6628C46.064 31.1188 46.192 30.3588 46.304 29.3828H46.856C46.856 30.8388 46.864 32.0148 46.88 32.9108C46.896 33.7908 46.92 34.5348 46.952 35.1428H46.4C46.336 34.4548 46.224 34.0228 46.064 33.8468C45.92 33.6708 45.672 33.6948 45.32 33.9188C44.728 34.3348 44.096 34.7028 43.424 35.0228C42.768 35.3268 41.92 35.4788 40.88 35.4788C39.36 35.4788 38.024 35.1348 36.872 34.4468C35.736 33.7588 34.848 32.7668 34.208 31.4708C33.584 30.1748 33.272 28.6148 33.272 26.7908C33.272 24.9988 33.6 23.4308 34.256 22.0868C34.912 20.7428 35.808 19.6948 36.944 18.9428C38.096 18.1908 39.416 17.8148 40.904 17.8148ZM55.0994 22.4468C56.1234 22.4468 57.0434 22.6708 57.8594 23.1188C58.6754 23.5668 59.3234 24.2708 59.8034 25.2308C60.2994 26.1908 60.5474 27.4388 60.5474 28.9748C60.5474 30.5108 60.2994 31.7588 59.8034 32.7188C59.3234 33.6628 58.6754 34.3588 57.8594 34.8068C57.0434 35.2548 56.1234 35.4788 55.0994 35.4788C54.0914 35.4788 53.1714 35.2548 52.3394 34.8068C51.5234 34.3588 50.8674 33.6628 50.3714 32.7188C49.8914 31.7588 49.6514 30.5108 49.6514 28.9748C49.6514 27.4388 49.8914 26.1908 50.3714 25.2308C50.8674 24.2708 51.5234 23.5668 52.3394 23.1188C53.1714 22.6708 54.0914 22.4468 55.0994 22.4468ZM55.0994 22.9268C54.1874 22.9268 53.4354 23.3988 52.8434 24.3428C52.2674 25.2868 51.9794 26.8308 51.9794 28.9748C51.9794 31.1188 52.2674 32.6628 52.8434 33.6068C53.4354 34.5348 54.1874 34.9988 55.0994 34.9988C56.0114 34.9988 56.7554 34.5348 57.3314 33.6068C57.9234 32.6628 58.2194 31.1188 58.2194 28.9748C58.2194 26.8308 57.9234 25.2868 57.3314 24.3428C56.7554 23.3988 56.0114 22.9268 55.0994 22.9268ZM70.4319 22.4468C71.0399 22.4468 71.5439 22.5268 71.9439 22.6868C72.3599 22.8468 72.7039 23.0708 72.9759 23.3588C73.2799 23.6788 73.4959 24.0788 73.6239 24.5588C73.7519 25.0388 73.8159 25.6868 73.8159 26.5028V32.9108C73.8159 33.5828 73.9519 34.0388 74.2239 34.2788C74.5119 34.5188 74.9839 34.6388 75.6399 34.6388V35.1428C75.3679 35.1268 74.9519 35.1108 74.3919 35.0948C73.8319 35.0628 73.2879 35.0468 72.7599 35.0468C72.2319 35.0468 71.7119 35.0628 71.1999 35.0948C70.7039 35.1108 70.3279 35.1268 70.0719 35.1428V34.6388C70.6479 34.6388 71.0559 34.5188 71.2959 34.2788C71.5359 34.0388 71.6559 33.5828 71.6559 32.9108V25.9748C71.6559 25.4788 71.6159 25.0228 71.5359 24.6068C71.4559 24.1908 71.2719 23.8548 70.9839 23.5988C70.7119 23.3428 70.2879 23.2148 69.7119 23.2148C69.0399 23.2148 68.4479 23.4068 67.9359 23.7908C67.4399 24.1748 67.0479 24.7028 66.7599 25.3748C66.4879 26.0308 66.3519 26.7668 66.3519 27.5828V32.9108C66.3519 33.5828 66.4719 34.0388 66.7119 34.2788C66.9519 34.5188 67.3599 34.6388 67.9359 34.6388V35.1428C67.6799 35.1268 67.2959 35.1108 66.7839 35.0948C66.2879 35.0628 65.7759 35.0468 65.2479 35.0468C64.7199 35.0468 64.1759 35.0628 63.6159 35.0948C63.0559 35.1108 62.6399 35.1268 62.3679 35.1428V34.6388C63.0239 34.6388 63.4879 34.5188 63.7599 34.2788C64.0479 34.0388 64.1919 33.5828 64.1919 32.9108V25.3988C64.1919 24.6788 64.0639 24.1508 63.8079 23.8148C63.5519 23.4628 63.0719 23.2868 62.3679 23.2868V22.7828C62.8799 22.8308 63.3759 22.8548 63.8559 22.8548C64.3199 22.8548 64.7599 22.8308 65.1759 22.7828C65.6079 22.7188 65.9999 22.6308 66.3519 22.5188V25.3508C66.7679 24.2628 67.3439 23.5108 68.0799 23.0948C68.8319 22.6628 69.6159 22.4468 70.4319 22.4468ZM80.5522 18.7988V22.8068H84.1042V23.2868H80.5522V32.5748C80.5522 33.3268 80.6882 33.8548 80.9602 34.1588C81.2322 34.4628 81.6082 34.6148 82.0882 34.6148C82.5682 34.6148 82.9842 34.4228 83.3362 34.0388C83.6882 33.6388 83.9922 32.9748 84.2482 32.0468L84.7282 32.1668C84.5682 33.0948 84.2482 33.8788 83.7682 34.5188C83.3042 35.1588 82.5842 35.4788 81.6082 35.4788C81.0642 35.4788 80.6162 35.4068 80.2642 35.2628C79.9122 35.1348 79.6002 34.9428 79.3282 34.6868C78.9762 34.3188 78.7282 33.8788 78.5842 33.3668C78.4562 32.8548 78.3922 32.1748 78.3922 31.3268V23.2868H76.0882V22.8068H78.3922V19.1348C78.7922 19.1188 79.1762 19.0868 79.5442 19.0388C79.9122 18.9908 80.2482 18.9108 80.5522 18.7988ZM88.5806 35.3108C87.9246 35.3108 87.3566 35.1908 86.8766 34.9508C86.3966 34.6948 86.0286 34.3428 85.7726 33.8948C85.5326 33.4468 85.4126 32.9268 85.4126 32.3348C85.4126 31.6308 85.5726 31.0548 85.8926 30.6068C86.2286 30.1588 86.6526 29.7988 87.1646 29.5268C87.6766 29.2548 88.2126 29.0308 88.7726 28.8548C89.3486 28.6628 89.8926 28.4868 90.4046 28.3268C90.9166 28.1508 91.3326 27.9508 91.6526 27.7268C91.9886 27.5028 92.1566 27.2068 92.1566 26.8388V25.3508C92.1566 24.6788 92.0526 24.1668 91.8446 23.8148C91.6526 23.4628 91.3886 23.2308 91.0526 23.1188C90.7166 22.9908 90.3406 22.9268 89.9246 22.9268C89.5246 22.9268 89.0926 22.9828 88.6286 23.0948C88.1806 23.2068 87.8206 23.4388 87.5486 23.7908C87.8526 23.8548 88.1166 24.0148 88.3406 24.2708C88.5646 24.5268 88.6766 24.8548 88.6766 25.2548C88.6766 25.6548 88.5486 25.9748 88.2926 26.2148C88.0366 26.4388 87.7086 26.5508 87.3086 26.5508C86.8446 26.5508 86.5006 26.4068 86.2766 26.1188C86.0686 25.8148 85.9646 25.4788 85.9646 25.1108C85.9646 24.6948 86.0686 24.3588 86.2766 24.1028C86.4846 23.8468 86.7486 23.6068 87.0686 23.3828C87.4366 23.1268 87.9086 22.9108 88.4846 22.7348C89.0766 22.5428 89.7406 22.4468 90.4766 22.4468C91.1326 22.4468 91.6926 22.5268 92.1566 22.6868C92.6206 22.8308 93.0046 23.0468 93.3086 23.3348C93.7246 23.7188 93.9966 24.1908 94.1246 24.7508C94.2526 25.2948 94.3166 25.9508 94.3166 26.7188V33.3908C94.3166 33.7908 94.3726 34.0788 94.4846 34.2548C94.6126 34.4308 94.8046 34.5188 95.0606 34.5188C95.2366 34.5188 95.4046 34.4788 95.5646 34.3988C95.7246 34.3188 95.9166 34.1908 96.1406 34.0148L96.4046 34.4228C96.0686 34.6788 95.7486 34.8948 95.4446 35.0708C95.1406 35.2308 94.7326 35.3108 94.2206 35.3108C93.7566 35.3108 93.3726 35.2308 93.0686 35.0708C92.7646 34.9108 92.5326 34.6788 92.3726 34.3748C92.2286 34.0548 92.1566 33.6548 92.1566 33.1748C91.7246 33.8948 91.2046 34.4308 90.5966 34.7828C90.0046 35.1348 89.3326 35.3108 88.5806 35.3108ZM89.4446 34.3508C89.9726 34.3508 90.4606 34.1988 90.9086 33.8948C91.3726 33.5908 91.7886 33.1348 92.1566 32.5268V27.8228C91.9646 28.0948 91.6846 28.3268 91.3166 28.5188C90.9486 28.6948 90.5486 28.8788 90.1166 29.0708C89.6846 29.2468 89.2686 29.4628 88.8686 29.7188C88.4846 29.9588 88.1646 30.2788 87.9086 30.6788C87.6526 31.0788 87.5246 31.5988 87.5246 32.2388C87.5246 32.8788 87.6926 33.3908 88.0286 33.7748C88.3806 34.1588 88.8526 34.3508 89.4446 34.3508ZM103.126 22.4468C103.638 22.4468 104.134 22.5108 104.614 22.6388C105.094 22.7668 105.526 22.9588 105.91 23.2148C106.278 23.4548 106.558 23.7348 106.75 24.0548C106.942 24.3588 107.038 24.6948 107.038 25.0628C107.038 25.4948 106.918 25.8308 106.678 26.0708C106.438 26.2948 106.134 26.4068 105.766 26.4068C105.414 26.4068 105.102 26.3028 104.83 26.0948C104.574 25.8868 104.446 25.5908 104.446 25.2068C104.446 24.8388 104.542 24.5428 104.734 24.3188C104.942 24.0948 105.182 23.9508 105.454 23.8868C105.294 23.5988 105.006 23.3588 104.59 23.1668C104.19 22.9748 103.758 22.8788 103.294 22.8788C102.894 22.8788 102.494 22.9748 102.094 23.1668C101.694 23.3588 101.326 23.6788 100.99 24.1268C100.654 24.5588 100.382 25.1588 100.174 25.9268C99.9657 26.6788 99.8617 27.6228 99.8617 28.7588C99.8617 30.1668 100.022 31.2868 100.342 32.1188C100.662 32.9508 101.078 33.5508 101.59 33.9188C102.118 34.2708 102.694 34.4468 103.318 34.4468C103.734 34.4468 104.158 34.3668 104.59 34.2068C105.022 34.0468 105.43 33.7908 105.814 33.4388C106.198 33.0708 106.526 32.5828 106.798 31.9748L107.254 32.1428C107.094 32.6548 106.83 33.1748 106.462 33.7028C106.094 34.2148 105.614 34.6388 105.022 34.9748C104.43 35.3108 103.702 35.4788 102.838 35.4788C101.846 35.4788 100.95 35.2228 100.15 34.7108C99.3497 34.1988 98.7097 33.4708 98.2297 32.5268C97.7657 31.5668 97.5337 30.4308 97.5337 29.1188C97.5337 27.8068 97.7657 26.6548 98.2297 25.6628C98.7097 24.6548 99.3737 23.8708 100.222 23.3108C101.07 22.7348 102.038 22.4468 103.126 22.4468ZM112.662 18.7988V22.8068H116.214V23.2868H112.662V32.5748C112.662 33.3268 112.798 33.8548 113.07 34.1588C113.342 34.4628 113.718 34.6148 114.198 34.6148C114.678 34.6148 115.094 34.4228 115.446 34.0388C115.798 33.6388 116.102 32.9748 116.358 32.0468L116.838 32.1668C116.678 33.0948 116.358 33.8788 115.878 34.5188C115.414 35.1588 114.694 35.4788 113.718 35.4788C113.174 35.4788 112.726 35.4068 112.374 35.2628C112.022 35.1348 111.71 34.9428 111.438 34.6868C111.086 34.3188 110.838 33.8788 110.694 33.3668C110.566 32.8548 110.502 32.1748 110.502 31.3268V23.2868H108.198V22.8068H110.502V19.1348C110.902 19.1188 111.286 19.0868 111.654 19.0388C112.022 18.9908 112.358 18.9108 112.662 18.7988ZM142.06 18.1508V18.6308C141.516 18.6468 141.1 18.7108 140.812 18.8228C140.54 18.9188 140.356 19.1108 140.26 19.3988C140.164 19.6708 140.116 20.1028 140.116 20.6948V32.5988C140.116 33.1748 140.164 33.6068 140.26 33.8948C140.356 34.1828 140.54 34.3748 140.812 34.4708C141.1 34.5668 141.516 34.6308 142.06 34.6628V35.1428C141.692 35.1108 141.228 35.0948 140.668 35.0948C140.124 35.0788 139.572 35.0708 139.012 35.0708C138.388 35.0708 137.804 35.0788 137.26 35.0948C136.716 35.0948 136.276 35.1108 135.94 35.1428V34.6628C136.484 34.6308 136.892 34.5668 137.164 34.4708C137.452 34.3748 137.644 34.1828 137.74 33.8948C137.836 33.6068 137.884 33.1748 137.884 32.5988V19.3988L137.98 19.4708L132.1 35.2628H131.716L125.668 19.6868V32.3588C125.668 32.9348 125.716 33.3908 125.812 33.7268C125.924 34.0468 126.132 34.2788 126.436 34.4228C126.756 34.5508 127.228 34.6308 127.852 34.6628V35.1428C127.564 35.1108 127.188 35.0948 126.724 35.0948C126.26 35.0788 125.82 35.0708 125.404 35.0708C125.004 35.0708 124.596 35.0788 124.18 35.0948C123.78 35.0948 123.444 35.1108 123.172 35.1428V34.6628C123.716 34.6308 124.124 34.5508 124.396 34.4228C124.684 34.2788 124.876 34.0468 124.972 33.7268C125.068 33.3908 125.116 32.9348 125.116 32.3588V20.6948C125.116 20.1028 125.068 19.6708 124.972 19.3988C124.876 19.1108 124.684 18.9188 124.396 18.8228C124.124 18.7108 123.716 18.6468 123.172 18.6308V18.1508C123.444 18.1668 123.78 18.1828 124.18 18.1988C124.596 18.2148 125.004 18.2228 125.404 18.2228C125.756 18.2228 126.116 18.2148 126.484 18.1988C126.868 18.1828 127.188 18.1668 127.444 18.1508L132.892 32.5028L132.484 32.6948L137.884 18.2228C138.076 18.2228 138.26 18.2228 138.436 18.2228C138.628 18.2228 138.82 18.2228 139.012 18.2228C139.572 18.2228 140.124 18.2148 140.668 18.1988C141.228 18.1828 141.692 18.1668 142.06 18.1508ZM149.176 22.4468C150.584 22.4468 151.68 22.8788 152.464 23.7428C153.264 24.5908 153.664 25.9188 153.664 27.7268H145.192L145.168 27.2708H151.36C151.392 26.4868 151.328 25.7668 151.168 25.1108C151.008 24.4388 150.752 23.9028 150.4 23.5028C150.064 23.1028 149.624 22.9028 149.08 22.9028C148.344 22.9028 147.688 23.2708 147.112 24.0068C146.552 24.7428 146.216 25.9108 146.104 27.5108L146.176 27.6068C146.144 27.8468 146.12 28.1108 146.104 28.3988C146.088 28.6868 146.08 28.9748 146.08 29.2628C146.08 30.3508 146.256 31.2868 146.608 32.0708C146.96 32.8548 147.416 33.4548 147.976 33.8708C148.552 34.2708 149.144 34.4708 149.752 34.4708C150.232 34.4708 150.688 34.3988 151.12 34.2548C151.552 34.0948 151.952 33.8388 152.32 33.4868C152.688 33.1348 153.008 32.6628 153.28 32.0708L153.76 32.2628C153.584 32.7908 153.296 33.3028 152.896 33.7988C152.496 34.2948 151.992 34.7028 151.384 35.0228C150.776 35.3268 150.072 35.4788 149.272 35.4788C148.12 35.4788 147.128 35.2148 146.296 34.6868C145.48 34.1588 144.848 33.4308 144.4 32.5028C143.968 31.5588 143.752 30.4788 143.752 29.2628C143.752 27.8548 143.976 26.6468 144.424 25.6388C144.872 24.6148 145.504 23.8308 146.32 23.2868C147.136 22.7268 148.088 22.4468 149.176 22.4468Z" fill="black"/>
<defs>
<linearGradient id="paint0_linear_49_88" x1="46.8831" y1="30.6593" x2="127.069" y2="29.17" gradientUnits="userSpaceOnUse">
<stop stop-color="#F2D894"/>
<stop offset="0.49973" stop-color="#ECCE80"/>
<stop offset="1" stop-color="#E3CB8B"/>
</linearGradient>
</defs>
</svg>
