<svg width="98" height="154" viewBox="0 0 98 154" fill="none" xmlns="http://www.w3.org/2000/svg">
<path d="M1.17868 0.684082L1.17869 153.251" stroke="black"/>
<path d="M12.9146 15.3542L12.9146 153.251" stroke="black"/>
<path d="M26.1177 34.4249L26.1177 153.251" stroke="black"/>
<path d="M55.4575 52.0288L55.4575 153.251" stroke="black"/>
<path d="M70.1275 69.6328L70.1275 153.251" stroke="black"/>
<path d="M1.1788 148.85H84.7972" stroke="black"/>
<path d="M1.17874 135.647H90.6651" stroke="black"/>
<path d="M1.17868 120.978H75.9952" stroke="black"/>
<path d="M1.1788 106.308H70.1273" stroke="black"/>
<path d="M1.17868 91.6377H64.2592" stroke="black"/>
<path d="M1.1788 76.9679H55.4574" stroke="black"/>
<path d="M1.17868 60.8307H48.1224" stroke="black"/>
<path d="M40.7875 28.5571L40.7875 153.251" stroke="black"/>
<path d="M90.6654 68.1658L91.9828 72.2204H96.2461L92.797 74.7263L94.1145 78.781L90.6654 76.2751L87.2163 78.781L88.5337 74.7263L85.0846 72.2204H89.3479L90.6654 68.1658Z" fill="black"/>
<path d="M62.7925 15.354L64.4393 20.4223H69.7684L65.457 23.5547L67.1038 28.6231L62.7925 25.4907L58.4811 28.6231L60.1279 23.5547L55.8165 20.4223H61.1457L62.7925 15.354Z" fill="black"/>
<path d="M79.6628 44.694L80.4862 47.2281H83.1508L80.9951 48.7943L81.8185 51.3285L79.6628 49.7623L77.5071 51.3285L78.3305 48.7943L76.1749 47.2281H78.8394L79.6628 44.694Z" fill="black"/>
<path d="M95.7997 25.623L96.2938 27.1435H97.8925L96.5991 28.0833L97.0931 29.6038L95.7997 28.664L94.5063 29.6038L95.0004 28.0833L93.7069 27.1435H95.3057L95.7997 25.623Z" fill="black"/>
</svg>
