<svg width="244" height="16" viewBox="0 0 244 16" fill="none" xmlns="http://www.w3.org/2000/svg">
<path d="M242.313 0L244 16H0L1.12442 0.888889H6.18432C5.80952 4.74074 6.07188 12.6222 10.1198 13.3333C14.1677 14.0444 12.9309 5.33333 11.8064 0.888889H16.3041C16.3041 4.74074 17.3161 12.6222 21.364 13.3333C25.4119 14.0444 23.0507 5.33333 21.364 0.888889H29.7972C29.7972 3.25926 30.6967 9.06667 34.2949 13.3333C37.893 17.6 38.4178 6.81481 38.2304 0.888889C38.98 4.74074 41.2663 12.2667 44.4147 11.5556C47.5631 10.8444 46.4761 4.14815 45.5391 0.888889H51.7235C50.9739 4.44444 50.7116 11.5556 55.659 11.5556C60.6065 11.5556 59.5945 4.44444 58.4701 0.888889H62.9678C63.1552 4.74074 64.9917 12.4444 70.8387 12.4444C76.6857 12.4444 72.5253 4.74074 69.7143 0.888889H76.4608C76.6482 4.74074 78.1475 12.4444 82.6451 12.4444C87.1428 12.4444 85.2688 4.74074 83.7696 0.888889H91.6404C90.516 4.74074 90.4036 12.4444 98.9492 12.4444C107.495 12.4444 102.51 4.74074 98.9492 0.888889L107.945 0C108.507 4.14815 110.531 12.2667 114.129 11.5556C117.727 10.8444 116.003 3.55556 114.691 0H118.627C119.376 4.44444 121.775 13.1556 125.373 12.4444C128.971 11.7333 126.498 3.85185 124.811 0H131.557C131.557 4.44444 132.682 13.3333 137.18 13.3333C141.677 13.3333 138.304 4.44444 136.055 0L143.364 3.55556C145.238 6.81482 149.436 13.3333 151.235 13.3333C153.034 13.3333 150.485 6.81482 148.986 3.55556L155.733 0C155.545 3.55556 156.182 11.2 160.23 13.3333C164.278 15.4667 163.416 5.33333 162.479 0H166.977C167.539 4.44444 169.451 13.3333 172.599 13.3333C175.747 13.3333 173.911 4.44444 172.599 0H179.345C178.221 3.85185 177.097 11.9111 181.594 13.3333C186.092 14.7556 184.218 5.03704 182.719 0H187.216C187.779 4.44444 189.578 13.3333 192.276 13.3333C194.975 13.3333 193.401 4.44444 192.276 0H197.898C196.961 3.85185 195.987 11.9111 199.585 13.3333C203.183 14.7556 202.958 5.03704 202.396 0H205.207C205.769 4.44444 207.681 13.3333 210.829 13.3333C213.978 13.3333 211.392 4.44444 209.705 0H217.014C215.514 3.85185 213.64 11.9111 218.138 13.3333C222.636 14.7556 221.886 5.03704 220.949 0H224.885C224.885 3.55556 225.672 11.2 228.82 13.3333C231.969 15.4667 230.882 5.33333 229.945 0H235.567C234.63 4.74074 233.655 14.2222 237.253 14.2222C240.852 14.2222 240.627 4.74074 240.065 0H242.313Z" fill="white"/>
</svg>
